ffmpeg started on 2025-05-28 at 22:08:16
Report written to "D:\Convert\FFMetrics\reports\ssim_report-6.txt"
Log level: 32
Command line:
ffmpeg -hide_banner -nostdin -i "G:\\\xc0\xed\xe8\xec\xe5\\\xce\xed\xe3\xee\xe8\xed\xe3\xe8\\!_36_\xce\xf1\xe5\xed\xfc_2024\\JamClub\\\xcc\xe5\xf5\xe0\xed\xe8\xf7\xe5\xf1\xea\xe8\xe5 \xf0\xf3\xea\xe8\\JamClub_Mecha_ude_TV_08_1080p_HEVC.mkv" -i "G:\\\xc0\xed\xe8\xec\xe5\\\xce\xed\xe3\xee\xe8\xed\xe3\xe8\\!_36_\xce\xf1\xe5\xed\xfc_2024\\JamClub\\\xcc\xe5\xf5\xe0\xed\xe8\xf7\xe5\xf1\xea\xe8\xe5 \xf0\xf3\xea\xe8\\JamClub_Mecha_ude_TV_08_1080p.mp4" -lavfi "[0:v]settb=AVTB,setpts=PTS-STARTPTS,format=pix_fmts=yuv420p10,fps=24000/1001,scale=1920:1080:flags=bicubic[main];[1:v]settb=AVTB,setpts=PTS-STARTPTS,format=pix_fmts=yuv420p,fps=24000/1001,scale=1920:1080:flags=bicubic[ref];[main][ref]ssim=eof_action=endall:stats_file='D\\:/Convert/FFMetrics/logs/ssim_logfile-6.txt'" -f null -
Input #0, matroska,webm, from 'G:\Аниме\Онгоинги\!_36_Осень_2024\JamClub\Механические руки\JamClub_Mecha_ude_TV_08_1080p_HEVC.mkv':
  Metadata:
    COMPATIBLE_BRANDS: isomiso2avc1mp41
    MAJOR_BRAND     : isom
    MINOR_VERSION   : 512
    ENCODER         : Lavf61.7.100
  Duration: 00:24:04.33, start: -0.001000, bitrate: 1294 kb/s
  Stream #0:0: Video: hevc (Main 10), yuv420p10le(tv, bt709, progressive), 1920x1080 [SAR 1:1 DAR 16:9], 23.98 fps, 23.98 tbr, 1k tbn (default)
      Metadata:
        HANDLER_NAME    : VideoHandler
        VENDOR_ID       : [0][0][0][0]
        ENCODER         : Lavc61.19.100 libx265
        BPS             : 1095780
        DURATION        : 00:24:04.192708333
        NUMBER_OF_FRAMES: 34626
        NUMBER_OF_BYTES : 197814596
        _STATISTICS_WRITING_APP: mkvpropedit v66.0.0 ('Josie') 64-bit
        _STATISTICS_WRITING_DATE_UTC: 2025-05-28 15:54:28
        _STATISTICS_TAGS: BPS DURATION NUMBER_OF_FRAMES NUMBER_OF_BYTES
  Stream #0:1(eng): Audio: aac (LC), 48000 Hz, stereo, fltp (default)
      Metadata:
        HANDLER_NAME    : SoundHandler
        VENDOR_ID       : [0][0][0][0]
        ENCODER         : Lavc61.19.100 aac
        BPS             : 194420
        DURATION        : 00:24:04.291000000
        NUMBER_OF_FRAMES: 67702
        NUMBER_OF_BYTES : 35099919
        _STATISTICS_WRITING_APP: mkvpropedit v66.0.0 ('Josie') 64-bit
        _STATISTICS_WRITING_DATE_UTC: 2025-05-28 15:54:28
        _STATISTICS_TAGS: BPS DURATION NUMBER_OF_FRAMES NUMBER_OF_BYTES
Input #1, mov,mp4,m4a,3gp,3g2,mj2, from 'G:\Аниме\Онгоинги\!_36_Осень_2024\JamClub\Механические руки\JamClub_Mecha_ude_TV_08_1080p.mp4':
  Metadata:
    major_brand     : isom
    minor_version   : 512
    compatible_brands: isomiso2avc1mp41
    encoder         : Lavf60.16.100
  Duration: 00:24:04.31, start: 0.000000, bitrate: 3768 kb/s
  Stream #1:0[0x1](und): Video: h264 (High) (avc1 / 0x31637661), yuv420p(progressive), 1920x1080 [SAR 1:1 DAR 16:9], 3570 kb/s, 23.98 fps, 23.98 tbr, 90k tbn (default)
      Metadata:
        handler_name    : VideoHandler
        vendor_id       : [0][0][0][0]
  Stream #1:1[0x2](eng): Audio: aac (LC) (mp4a / 0x6134706D), 48000 Hz, stereo, fltp, 191 kb/s (default)
      Metadata:
        handler_name    : SoundHandler
        vendor_id       : [0][0][0][0]
Stream mapping:
  Stream #0:0 (hevc) -> settb:default
  Stream #1:0 (h264) -> settb:default
  ssim:default -> Stream #0:0 (wrapped_avframe)
  Stream #0:1 -> #0:1 (aac (native) -> pcm_s16le (native))
Output #0, null, to 'pipe:':
  Metadata:
    COMPATIBLE_BRANDS: isomiso2avc1mp41
    MAJOR_BRAND     : isom
    MINOR_VERSION   : 512
    encoder         : Lavf61.7.100
  Stream #0:0: Video: wrapped_avframe, yuv420p10le(tv, bt709, progressive), 1920x1080 [SAR 1:1 DAR 16:9], q=2-31, 200 kb/s, 23.98 fps, 23.98 tbn
      Metadata:
        encoder         : Lavc61.19.100 wrapped_avframe
  Stream #0:1(eng): Audio: pcm_s16le, 48000 Hz, stereo, s16, 1536 kb/s (default)
      Metadata:
        HANDLER_NAME    : SoundHandler
        VENDOR_ID       : [0][0][0][0]
        _STATISTICS_TAGS: BPS DURATION NUMBER_OF_FRAMES NUMBER_OF_BYTES
        BPS             : 194420
        DURATION        : 00:24:04.291000000
        NUMBER_OF_FRAMES: 67702
        NUMBER_OF_BYTES : 35099919
        _STATISTICS_WRITING_APP: mkvpropedit v66.0.0 ('Josie') 64-bit
        _STATISTICS_WRITING_DATE_UTC: 2025-05-28 15:54:28
        encoder         : Lavc61.19.100 pcm_s16le
frame=  112 fps=0.0 q=-0.0 size=N/A time=00:00:04.67 bitrate=N/A speed=9.06x    frame=  270 fps=264 q=-0.0 size=N/A time=00:00:11.26 bitrate=N/A speed=  11x    frame=  477 fps=308 q=-0.0 size=N/A time=00:00:19.89 bitrate=N/A speed=12.9x    frame=  744 fps=363 q=-0.0 size=N/A time=00:00:31.03 bitrate=N/A speed=15.1x    frame=  944 fps=367 q=-0.0 size=N/A time=00:00:39.37 bitrate=N/A speed=15.3x    frame= 1184 fps=382 q=-0.0 size=N/A time=00:00:49.38 bitrate=N/A speed=15.9x    frame= 1430 fps=397 q=-0.0 size=N/A time=00:00:59.64 bitrate=N/A speed=16.6x    frame= 1708 fps=414 q=-0.0 size=N/A time=00:01:11.23 bitrate=N/A speed=17.3x    frame= 1903 fps=411 q=-0.0 size=N/A time=00:01:19.37 bitrate=N/A speed=17.1x    frame= 2085 fps=404 q=-0.0 size=N/A time=00:01:26.96 bitrate=N/A speed=16.9x    frame= 2277 fps=402 q=-0.0 size=N/A time=00:01:34.96 bitrate=N/A speed=16.8x    frame= 2492 fps=403 q=-0.0 size=N/A time=00:01:43.93 bitrate=N/A speed=16.8x    frame= 2630 fps=393 q=-0.0 size=N/A time=00:01:49.69 bitrate=N/A speed=16.4x    frame= 2788 fps=387 q=-0.0 size=N/A time=00:01:56.28 bitrate=N/A speed=16.1x    frame= 2943 fps=380 q=-0.0 size=N/A time=00:02:02.74 bitrate=N/A speed=15.9x    frame= 3136 fps=380 q=-0.0 size=N/A time=00:02:10.79 bitrate=N/A speed=15.9x    frame= 3355 fps=383 q=-0.0 size=N/A time=00:02:19.93 bitrate=N/A speed=  16x    frame= 3611 fps=389 q=-0.0 size=N/A time=00:02:30.60 bitrate=N/A speed=16.2x    frame= 3869 fps=395 q=-0.0 size=N/A time=00:02:41.36 bitrate=N/A speed=16.5x    frame= 4097 fps=398 q=-0.0 size=N/A time=00:02:50.87 bitrate=N/A speed=16.6x    frame= 4371 fps=404 q=-0.0 size=N/A time=00:03:02.30 bitrate=N/A speed=16.8x    frame= 4614 fps=407 q=-0.0 size=N/A time=00:03:12.44 bitrate=N/A speed=  17x    frame= 4892 fps=412 q=-0.0 size=N/A time=00:03:24.03 bitrate=N/A speed=17.2x    frame= 5160 fps=417 q=-0.0 size=N/A time=00:03:35.21 bitrate=N/A speed=17.4x    frame= 5442 fps=422 q=-0.0 size=N/A time=00:03:46.97 bitrate=N/A speed=17.6x    frame= 5736 fps=428 q=-0.0 size=N/A time=00:03:59.23 bitrate=N/A speed=17.9x    frame= 6010 fps=432 q=-0.0 size=N/A time=00:04:10.66 bitrate=N/A speed=  18x    frame= 6275 fps=435 q=-0.0 size=N/A time=00:04:21.71 bitrate=N/A speed=18.1x    frame= 6523 fps=436 q=-0.0 size=N/A time=00:04:32.06 bitrate=N/A speed=18.2x    frame= 6803 fps=440 q=-0.0 size=N/A time=00:04:43.74 bitrate=N/A speed=18.3x    frame= 7065 fps=442 q=-0.0 size=N/A time=00:04:54.66 bitrate=N/A speed=18.4x    frame= 7293 fps=442 q=-0.0 size=N/A time=00:05:04.17 bitrate=N/A speed=18.4x    frame= 7506 fps=441 q=-0.0 size=N/A time=00:05:13.06 bitrate=N/A speed=18.4x    frame= 7754 fps=442 q=-0.0 size=N/A time=00:05:23.40 bitrate=N/A speed=18.4x    frame= 7961 fps=441 q=-0.0 size=N/A time=00:05:32.04 bitrate=N/A speed=18.4x    frame= 8239 fps=444 q=-0.0 size=N/A time=00:05:43.63 bitrate=N/A speed=18.5x    frame= 8509 fps=446 q=-0.0 size=N/A time=00:05:54.89 bitrate=N/A speed=18.6x    frame= 8806 fps=449 q=-0.0 size=N/A time=00:06:07.28 bitrate=N/A speed=18.7x    frame= 9051 fps=450 q=-0.0 size=N/A time=00:06:17.50 bitrate=N/A speed=18.8x    frame= 9304 fps=451 q=-0.0 size=N/A time=00:06:28.05 bitrate=N/A speed=18.8x    frame= 9559 fps=452 q=-0.0 size=N/A time=00:06:38.68 bitrate=N/A speed=18.9x    frame= 9814 fps=453 q=-0.0 size=N/A time=00:06:49.32 bitrate=N/A speed=18.9x    frame=10052 fps=453 q=-0.0 size=N/A time=00:06:59.25 bitrate=N/A speed=18.9x    frame=10278 fps=453 q=-0.0 size=N/A time=00:07:08.67 bitrate=N/A speed=18.9x    frame=10559 fps=455 q=-0.0 size=N/A time=00:07:20.39 bitrate=N/A speed=  19x    frame=10831 fps=457 q=-0.0 size=N/A time=00:07:31.74 bitrate=N/A speed=  19x    frame=11102 fps=458 q=-0.0 size=N/A time=00:07:43.04 bitrate=N/A speed=19.1x    frame=11297 fps=456 q=-0.0 size=N/A time=00:07:51.17 bitrate=N/A speed=  19x    frame=11485 fps=455 q=-0.0 size=N/A time=00:07:59.02 bitrate=N/A speed=  19x    frame=11688 fps=453 q=-0.0 size=N/A time=00:08:07.48 bitrate=N/A speed=18.9x    frame=11937 fps=454 q=-0.0 size=N/A time=00:08:17.87 bitrate=N/A speed=18.9x    frame=12198 fps=455 q=-0.0 size=N/A time=00:08:28.75 bitrate=N/A speed=  19x    frame=12425 fps=455 q=-0.0 size=N/A time=00:08:38.22 bitrate=N/A speed=  19x    frame=12652 fps=454 q=-0.0 size=N/A time=00:08:47.69 bitrate=N/A speed=  19x    frame=12866 fps=454 q=-0.0 size=N/A time=00:08:56.61 bitrate=N/A speed=18.9x    frame=13124 fps=455 q=-0.0 size=N/A time=00:09:07.38 bitrate=N/A speed=  19x    frame=13387 fps=455 q=-0.0 size=N/A time=00:09:18.34 bitrate=N/A speed=  19x    frame=13630 fps=456 q=-0.0 size=N/A time=00:09:28.48 bitrate=N/A speed=  19x    frame=13916 fps=457 q=-0.0 size=N/A time=00:09:40.41 bitrate=N/A speed=19.1x    frame=14195 fps=459 q=-0.0 size=N/A time=00:09:52.04 bitrate=N/A speed=19.1x    frame=14471 fps=460 q=-0.0 size=N/A time=00:10:03.56 bitrate=N/A speed=19.2x    frame=14725 fps=461 q=-0.0 size=N/A time=00:10:14.15 bitrate=N/A speed=19.2x    frame=14984 fps=461 q=-0.0 size=N/A time=00:10:24.95 bitrate=N/A speed=19.2x    frame=15247 fps=462 q=-0.0 size=N/A time=00:10:35.92 bitrate=N/A speed=19.3x    frame=15503 fps=463 q=-0.0 size=N/A time=00:10:46.60 bitrate=N/A speed=19.3x    frame=15751 fps=463 q=-0.0 size=N/A time=00:10:56.94 bitrate=N/A speed=19.3x    frame=16018 fps=464 q=-0.0 size=N/A time=00:11:08.08 bitrate=N/A speed=19.3x    frame=16237 fps=463 q=-0.0 size=N/A time=00:11:17.21 bitrate=N/A speed=19.3x    frame=16502 fps=464 q=-0.0 size=N/A time=00:11:28.27 bitrate=N/A speed=19.3x    frame=16732 fps=464 q=-0.0 size=N/A time=00:11:37.86 bitrate=N/A speed=19.3x    frame=16933 fps=463 q=-0.0 size=N/A time=00:11:46.24 bitrate=N/A speed=19.3x    frame=17113 fps=461 q=-0.0 size=N/A time=00:11:53.75 bitrate=N/A speed=19.2x    frame=17316 fps=460 q=-0.0 size=N/A time=00:12:02.22 bitrate=N/A speed=19.2x    frame=17575 fps=461 q=-0.0 size=N/A time=00:12:13.02 bitrate=N/A speed=19.2x    frame=17801 fps=460 q=-0.0 size=N/A time=00:12:22.45 bitrate=N/A speed=19.2x    frame=18019 fps=460 q=-0.0 size=N/A time=00:12:31.54 bitrate=N/A speed=19.2x    frame=18223 fps=459 q=-0.0 size=N/A time=00:12:40.05 bitrate=N/A speed=19.1x    frame=18393 fps=457 q=-0.0 size=N/A time=00:12:47.14 bitrate=N/A speed=19.1x    frame=18630 fps=457 q=-0.0 size=N/A time=00:12:57.02 bitrate=N/A speed=19.1x    frame=18906 fps=458 q=-0.0 size=N/A time=00:13:08.53 bitrate=N/A speed=19.1x    frame=19174 fps=459 q=-0.0 size=N/A time=00:13:19.71 bitrate=N/A speed=19.1x    frame=19369 fps=458 q=-0.0 size=N/A time=00:13:27.84 bitrate=N/A speed=19.1x    frame=19599 fps=458 q=-0.0 size=N/A time=00:13:37.44 bitrate=N/A speed=19.1x    frame=19864 fps=459 q=-0.0 size=N/A time=00:13:48.49 bitrate=N/A speed=19.1x    frame=20093 fps=459 q=-0.0 size=N/A time=00:13:58.04 bitrate=N/A speed=19.1x    frame=20344 fps=459 q=-0.0 size=N/A time=00:14:08.51 bitrate=N/A speed=19.1x    frame=20609 fps=459 q=-0.0 size=N/A time=00:14:19.56 bitrate=N/A speed=19.2x    frame=20897 fps=461 q=-0.0 size=N/A time=00:14:31.57 bitrate=N/A speed=19.2x    frame=21172 fps=461 q=-0.0 size=N/A time=00:14:43.04 bitrate=N/A speed=19.2x    frame=21419 fps=461 q=-0.0 size=N/A time=00:14:53.35 bitrate=N/A speed=19.2x    frame=21699 fps=462 q=-0.0 size=N/A time=00:15:05.02 bitrate=N/A speed=19.3x    frame=21926 fps=462 q=-0.0 size=N/A time=00:15:14.49 bitrate=N/A speed=19.3x    frame=22123 fps=461 q=-0.0 size=N/A time=00:15:22.71 bitrate=N/A speed=19.2x    frame=22381 fps=461 q=-0.0 size=N/A time=00:15:33.47 bitrate=N/A speed=19.2x    frame=22602 fps=461 q=-0.0 size=N/A time=00:15:42.69 bitrate=N/A speed=19.2x    frame=22836 fps=461 q=-0.0 size=N/A time=00:15:52.45 bitrate=N/A speed=19.2x    frame=23028 fps=460 q=-0.0 size=N/A time=00:16:00.45 bitrate=N/A speed=19.2x    frame=23270 fps=460 q=-0.0 size=N/A time=00:16:10.55 bitrate=N/A speed=19.2x    frame=23543 fps=461 q=-0.0 size=N/A time=00:16:21.93 bitrate=N/A speed=19.2x    frame=23771 fps=461 q=-0.0 size=N/A time=00:16:31.44 bitrate=N/A speed=19.2x    frame=24038 fps=461 q=-0.0 size=N/A time=00:16:42.58 bitrate=N/A speed=19.2x    frame=24256 fps=461 q=-0.0 size=N/A time=00:16:51.67 bitrate=N/A speed=19.2x    frame=24448 fps=460 q=-0.0 size=N/A time=00:16:59.68 bitrate=N/A speed=19.2x    frame=24721 fps=461 q=-0.0 size=N/A time=00:17:11.07 bitrate=N/A speed=19.2x    frame=24992 fps=461 q=-0.0 size=N/A time=00:17:22.37 bitrate=N/A speed=19.2x    frame=25264 fps=462 q=-0.0 size=N/A time=00:17:33.71 bitrate=N/A speed=19.3x    frame=25480 fps=462 q=-0.0 size=N/A time=00:17:42.72 bitrate=N/A speed=19.3x    frame=25720 fps=462 q=-0.0 size=N/A time=00:17:52.73 bitrate=N/A speed=19.3x    frame=25973 fps=462 q=-0.0 size=N/A time=00:18:03.29 bitrate=N/A speed=19.3x    frame=26249 fps=463 q=-0.0 size=N/A time=00:18:14.80 bitrate=N/A speed=19.3x    frame=26491 fps=463 q=-0.0 size=N/A time=00:18:24.89 bitrate=N/A speed=19.3x    frame=26729 fps=462 q=-0.0 size=N/A time=00:18:34.82 bitrate=N/A speed=19.3x    frame=26971 fps=462 q=-0.0 size=N/A time=00:18:44.91 bitrate=N/A speed=19.3x    frame=27124 fps=461 q=-0.0 size=N/A time=00:18:51.29 bitrate=N/A speed=19.2x    frame=27381 fps=461 q=-0.0 size=N/A time=00:19:02.01 bitrate=N/A speed=19.2x    frame=27658 fps=462 q=-0.0 size=N/A time=00:19:13.56 bitrate=N/A speed=19.3x    frame=27922 fps=462 q=-0.0 size=N/A time=00:19:24.58 bitrate=N/A speed=19.3x    frame=28191 fps=463 q=-0.0 size=N/A time=00:19:35.79 bitrate=N/A speed=19.3x    frame=28483 fps=464 q=-0.0 size=N/A time=00:19:47.97 bitrate=N/A speed=19.3x    frame=28752 fps=464 q=-0.0 size=N/A time=00:19:59.19 bitrate=N/A speed=19.4x    frame=29041 fps=465 q=-0.0 size=N/A time=00:20:11.25 bitrate=N/A speed=19.4x    frame=29326 fps=466 q=-0.0 size=N/A time=00:20:23.13 bitrate=N/A speed=19.4x    frame=29603 fps=466 q=-0.0 size=N/A time=00:20:34.69 bitrate=N/A speed=19.5x    frame=29887 fps=467 q=-0.0 size=N/A time=00:20:46.53 bitrate=N/A speed=19.5x    frame=30163 fps=468 q=-0.0 size=N/A time=00:20:58.04 bitrate=N/A speed=19.5x    frame=30439 fps=468 q=-0.0 size=N/A time=00:21:09.55 bitrate=N/A speed=19.5x    frame=30688 fps=468 q=-0.0 size=N/A time=00:21:19.94 bitrate=N/A speed=19.5x    frame=30918 fps=468 q=-0.0 size=N/A time=00:21:29.53 bitrate=N/A speed=19.5x    frame=31202 fps=469 q=-0.0 size=N/A time=00:21:41.38 bitrate=N/A speed=19.5x    frame=31458 fps=469 q=-0.0 size=N/A time=00:21:52.06 bitrate=N/A speed=19.6x    frame=31733 fps=469 q=-0.0 size=N/A time=00:22:03.57 bitrate=N/A speed=19.6x    frame=32020 fps=470 q=-0.0 size=N/A time=00:22:15.50 bitrate=N/A speed=19.6x    frame=32294 fps=471 q=-0.0 size=N/A time=00:22:26.92 bitrate=N/A speed=19.6x    frame=32564 fps=471 q=-0.0 size=N/A time=00:22:38.19 bitrate=N/A speed=19.6x    frame=32829 fps=471 q=-0.0 size=N/A time=00:22:49.24 bitrate=N/A speed=19.7x    frame=33096 fps=472 q=-0.0 size=N/A time=00:23:00.37 bitrate=N/A speed=19.7x    frame=33355 fps=472 q=-0.0 size=N/A time=00:23:11.18 bitrate=N/A speed=19.7x    frame=33605 fps=472 q=-0.0 size=N/A time=00:23:21.60 bitrate=N/A speed=19.7x    frame=33865 fps=472 q=-0.0 size=N/A time=00:23:32.45 bitrate=N/A speed=19.7x    frame=34115 fps=472 q=-0.0 size=N/A time=00:23:42.87 bitrate=N/A speed=19.7x    frame=34360 fps=472 q=-0.0 size=N/A time=00:23:53.09 bitrate=N/A speed=19.7x    [Parsed_ssim_10 @ 000001e7e555cbc0] SSIM Y:0.993972 (22.197970) U:0.994265 (22.414607) V:0.993941 (22.176280) All:0.994015 (22.229682)
[out#0/null @ 000001e7de5406c0] video:14878KiB audio:270808KiB subtitle:0KiB other streams:0KiB global headers:0KiB muxing overhead: unknown
frame=34626 fps=473 q=-0.0 Lsize=N/A time=00:24:04.19 bitrate=N/A speed=19.7x    
